
<svg width="564px" height="450px" viewBox="0 0 564 160" version="1.1" xmlns="http://www.w3.org/2000/svg" xmlns:xlink="http://www.w3.org/1999/xlink">
    <!-- Generator: Sketch 51.3 (57544) - http://www.bohemiancoding.com/sketch -->
    <desc>Created with Sketch.</desc>
    <defs></defs>
    <g id="Webpages-Desktop" stroke="none" stroke-width="1" fill="none" fill-rule="evenodd">
        <g id="Home-≥1200px-V1" transform="translate(-694.000000, -215.000000)">
            <g id="Image-Copy" transform="translate(693.000000, 215.000000)">
                <g id="Web" transform="translate(171.386946, 0.000000)">
                    <rect id="Container" fill="#F2F2F2" x="0" y="0" width="237.6" height="207.6" rx="4.8"></rect>
                    <path d="M4.8,0 L232.8,0 C235.450967,1.59947458e-14 237.6,2.1490332 237.6,4.8 L237.6,16.2 L0,16.2 L0,4.8 C-3.24649801e-16,2.1490332 2.1490332,-4.01203719e-16 4.8,-8.8817842e-16 Z" id="Header" fill="#C5CFD6"></path>
                    <g id="Buttons" transform="translate(5.400000, 6.000000)" fill="#F2F2F2">
                        <circle id="buttons" cx="2.4" cy="2.4" r="2.4"></circle>
                        <circle id="buttons" cx="9.6" cy="2.4" r="2.4"></circle>
                        <circle id="buttons" cx="16.8" cy="2.4" r="2.4"></circle>
                    </g>
                    <g id="Content" transform="translate(9.600000, 25.800000)">
                        <g id="Components" transform="translate(176.400000, 53.400000)">
                            <rect id="Background" fill="#FFFFFF" x="0" y="0" width="42" height="116.4" rx="4.8"></rect>
                            <g id="Rows" transform="translate(10.800000, 10.800000)">
                                <rect id="Data" fill="#DDE3E9" x="0" y="0" width="20" height="16" rx="2.4"></rect>
                                <rect id="Data" fill="#AFB9C5" x="0" y="24" width="20" height="15" rx="2.4"></rect>
                                <rect id="Data" fill="#DDE3E9" x="0" y="47" width="20" height="15" rx="2.4"></rect>
                                <rect id="Data" fill="#DDE3E9" x="0" y="93" width="20" height="15" rx="2.4"></rect>
                                <rect id="Data" fill="#C5CFD6" x="0" y="70" width="20" height="15" rx="2.4"></rect>
                            </g>
                        </g>
                        <g id="Profile" transform="translate(176.400000, 0.000000)">
                            <rect id="Background" fill="#FFFFFF" x="0" y="0" width="42" height="48.6" rx="4.8"></rect>
                            <g id="Profile-Info" transform="translate(6.000000, 9.000000)" fill="#DDE3E9">
                                <circle id="Avatar" cx="15" cy="9.6" r="9.6"></circle>
                                <rect id="Name" x="0" y="21.6" width="30" height="3.6" rx="1.8"></rect>
                                <rect id="Name" x="4.8" y="27.6" width="20.4" height="3.6" rx="1.8"></rect>
                            </g>
                        </g>
                        <g id="Rows">
                            <g id="Row">
                                <rect id="Container" fill="#FFFFFF" x="0" y="0" width="171.6" height="28.2" rx="2.4"></rect>
                                <g id="Text-Stuff" transform="translate(5.400000, 8.460000)" fill="#DDE3E9">
                                    <rect id="Label" x="0" y="0" width="136.8" height="4.23" rx="1.8"></rect>
                                    <rect id="Label" x="0" y="7.05" width="91.8246575" height="4.23" rx="1.8"></rect>
                                </g>
                                <g id="Check" transform="translate(149.061069, 9.900000)">
                                    <circle id="Background" fill="#DDE3E9" cx="4.2" cy="4.2" r="4.2"></circle>
                                    <circle id="Indicator" fill="#F2F2F2" cx="4.2" cy="4.2" r="1.8"></circle>
                                </g>
                            </g>
                            <g id="Row" transform="translate(0.000000, 37.000000)">
                                <rect id="Container" fill="#FFFFFF" x="0" y="0" width="171.6" height="23.4" rx="2.4"></rect>
                                <g id="Text-Stuff" transform="translate(5.400000, 7.020000)" fill="#DDE3E9">
                                    <rect id="Label" x="0" y="0" width="136.8" height="3.51" rx="1.755"></rect>
                                    <rect id="Label" x="0" y="5.85" width="91.8246575" height="3.51" rx="1.755"></rect>
                                </g>
                                <g id="Check" transform="translate(149.061069, 7.500000)">
                                    <circle id="Background" fill="#DDE3E9" cx="4.2" cy="4.2" r="4.2"></circle>
                                    <circle id="Indicator" fill="#F2F2F2" cx="4.2" cy="4.2" r="1.8"></circle>
                                </g>
                            </g>
                            <g id="Row" transform="translate(0.000000, 69.000000)">
                                <rect id="Container" fill="#FFFFFF" x="0" y="0" width="171.6" height="23.4" rx="2.4"></rect>
                                <g id="Text-Stuff" transform="translate(5.400000, 7.020000)" fill="#DDE3E9">
                                    <rect id="Label" x="0" y="0" width="136.8" height="3.51" rx="1.755"></rect>
                                    <rect id="Label" x="0" y="5.85" width="91.8246575" height="3.51" rx="1.755"></rect>
                                </g>
                                <g id="Check" transform="translate(149.061069, 7.500000)">
                                    <circle id="Background" fill="#DDE3E9" cx="4.2" cy="4.2" r="4.2"></circle>
                                    <circle id="Indicator" fill="#AFB9C5" cx="4.2" cy="4.2" r="1.8"></circle>
                                </g>
                            </g>
                            <g id="Row" transform="translate(0.000000, 165.000000)">
                                <rect id="Container" fill="#FFFFFF" x="0" y="0" width="171.6" height="23.4" rx="2.4"></rect>
                                <g id="Text-Stuff" transform="translate(5.400000, 7.020000)" fill="#DDE3E9">
                                    <rect id="Label" x="0" y="0" width="136.8" height="3.51" rx="1.755"></rect>
                                    <rect id="Label" x="0" y="5.85" width="91.8246575" height="3.51" rx="1.755"></rect>
                                </g>
                                <g id="Check" transform="translate(149.061069, 7.500000)">
                                    <circle id="Background" fill="#DDE3E9" cx="4.2" cy="4.2" r="4.2"></circle>
                                    <circle id="Indicator" fill="#F2F2F2" cx="4.2" cy="4.2" r="1.8"></circle>
                                </g>
                            </g>
                            <g id="Row" transform="translate(0.000000, 133.000000)">
                                <rect id="Container" fill="#FFFFFF" x="0" y="0" width="171.6" height="23.4" rx="2.4"></rect>
                                <g id="Text-Stuff" transform="translate(5.400000, 7.020000)" fill="#DDE3E9">
                                    <rect id="Label" x="0" y="0" width="136.8" height="3.51" rx="1.755"></rect>
                                    <rect id="Label" x="0" y="5.85" width="91.8246575" height="3.51" rx="1.755"></rect>
                                </g>
                                <g id="Check" transform="translate(149.061069, 7.500000)">
                                    <circle id="Background" fill="#DDE3E9" cx="4.2" cy="4.2" r="4.2"></circle>
                                    <circle id="Indicator" fill="#F2F2F2" cx="4.2" cy="4.2" r="1.8"></circle>
                                </g>
                            </g>
                            <g id="Row" transform="translate(0.000000, 101.000000)">
                                <rect id="Container" fill="#FFFFFF" x="0" y="0" width="171.6" height="23.4" rx="2.4"></rect>
                                <g id="Text-Stuff" transform="translate(5.400000, 7.020000)" fill="#DDE3E9">
                                    <rect id="Label" x="0" y="0" width="136.8" height="3.51" rx="1.755"></rect>
                                    <rect id="Label" x="0" y="5.85" width="91.8246575" height="3.51" rx="1.755"></rect>
                                </g>
                                <g id="Check" transform="translate(149.061069, 7.500000)">
                                    <circle id="Background" fill="#DDE3E9" cx="4.2" cy="4.2" r="4.2"></circle>
                                    <circle id="Indicator" fill="#F2F2F2" cx="4.2" cy="4.2" r="1.8"></circle>
                                </g>
                            </g>
                        </g>
                    </g>
                </g>
                <g id="Group-3" transform="translate(283.886946, 234.000000) scale(-1, 1) translate(-283.886946, -234.000000) translate(0.386946, 16.000000)">
                    <g id="Humaaan" transform="translate(416.137500, 225.586530) scale(-1, 1) translate(-416.137500, -225.586530) translate(265.637500, 16.086530)">
                        <g id="Head/Front" transform="translate(125.464940, 61.169223) rotate(-8.000000) translate(-125.464940, -61.169223) translate(96.464940, 12.169223)">
                            <g id="Head" transform="translate(15.265250, 26.887220)" fill="#B28B67">
                                <path d="M7.99684833,33.2520642 C3.53696789,28.0374667 0.518427526,21.6469054 1.02282739,14.486098 C2.47614386,-6.14618192 31.3093341,-1.60734321 36.9179865,8.80605996 C42.526639,19.2194631 41.8601853,45.6339238 34.6115017,47.4950895 C31.7207367,48.2373197 25.5625478,46.4191528 19.2949482,42.6561061 L23.229,70.3795816 L0,70.3795816 L7.99684833,33.2520642 Z"></path>
                            </g>
                            <path d="M43.0079303,24.3516036 C39.8338407,23.3874997 35.2261779,23.0605412 33.2878712,23.2817259 C34.3904684,20.6502813 34.8279952,17.7185353 34.4713053,14.8639631 C34.1246181,12.0902173 32.8803526,9.72845316 31.7295941,7.25360975 C31.199153,6.1128689 30.598026,4.97834547 29.7017814,4.10580851 C28.7887915,3.21687311 27.6330687,2.63010425 26.4211824,2.35016498 C25.1809921,2.06361971 23.8841937,2.08747905 22.642077,2.34752258 C22.0925937,2.46254482 21.5995702,2.71279591 21.0606824,2.85191065 C20.5088281,2.99444497 20.2411254,2.65038858 19.8405717,2.30462239 C18.8752712,1.47148832 17.4601442,1.06020609 16.2389221,0.913008711 C14.8687704,0.747936251 13.447049,0.953810519 12.1403221,1.40247498 C10.8684194,1.83924862 9.64653036,2.54850063 8.72694607,3.58175786 C8.31750099,4.04169139 7.94584401,4.56519802 7.70429661,5.14318478 C7.60523253,5.38037929 7.58885769,5.52089295 7.35123729,5.60778137 C7.13147361,5.68821922 6.8744405,5.69055076 6.64763786,5.76710272 C4.45459492,6.50697551 2.57956469,8.19484918 1.5586194,10.3620081 C0.962975358,11.6263201 0.680824282,13.8523268 0.758104632,16.3473145 C0.835384982,18.8423022 3.09703924,25.3524371 5.21235727,27.7270246 C7.1005022,29.8465426 9.87585221,31.2452286 12.5542869,31.8574889 C10.7764684,33.8816472 9.59303428,36.4110484 8.71790656,38.9835053 C7.76735085,41.7778463 7.17904215,44.681303 6.96179768,47.6396284 C6.75544506,50.4503678 6.73632874,53.4227601 7.3978426,56.1735015 C8.01667815,58.7458807 9.34007636,60.8561502 11.549346,62.1949158 C12.5613258,62.8081864 13.6501415,63.2688971 14.7452552,63.6899718 C15.8245127,64.1049068 16.9070303,64.5083395 18.0375611,64.7411818 C20.177182,65.1816859 22.6425215,65.1060666 24.290675,63.4096439 C24.884689,62.7980831 25.5379784,62.0296102 25.9713559,61.2825097 C26.1271762,61.0138395 26.2211278,60.8381197 26.0318169,60.5755115 C25.8050142,60.2609878 25.4381734,60.0199851 25.1468346,59.7739308 C23.4854182,58.371048 22.4569894,56.4982062 22.1977335,54.2725258 C21.9346987,52.0142817 22.5436797,49.0994782 24.7478368,48.1139397 C27.4686534,46.8973463 30.4650267,48.2937785 32.8833163,49.5954728 C33.9110783,45.9822201 36.0213579,42.7288782 39.3298905,41.0714698 C42.9902227,39.2378754 47.1904061,39.0232968 50.9519511,37.4500567 C51.9321446,37.0400957 52.9304911,36.5747219 53.6521695,35.7394118 C53.9537333,35.3903037 54.3075336,34.9374425 54.4279368,34.4757215 C54.5861281,33.8692123 54.1934284,33.3607052 53.8900863,32.8878705 C52.2816473,30.3807743 46.1820198,25.3157074 43.0079303,24.3516036 Z" id="hair" fill="#191847"></path>
                        </g>
                        <g id="Bottom/Skinny-Jeans-1" transform="translate(0.000000, 186.806600)">
                            <polygon id="Leg" fill="#997659" points="126.82375 0 198.74307 119.767642 252.661868 221.021089 264.275498 221.021089 173.933796 4.90765403e-13"></polygon>
                            <g id="Right-Shoe" transform="translate(243.936625, 210.174641)" fill="#E4E4E4">
                                <path d="M1.91445038,5.41611917 C0.638150125,8.67693595 2.63484445e-16,11.0833055 0,12.6352278 C0,14.373783 0.290763398,16.9107674 0.872290195,20.246181 C2.89702523,20.246181 21.0936599,20.246181 55.4621942,20.246181 C56.8807923,15.5746227 56.0618952,13.0525988 53.0055029,12.6801091 C49.9491107,12.3076194 47.4101137,11.971291 45.388512,11.6711239 L19.6687588,0.249804812 C19.365906,0.115317574 19.0113718,0.251804836 18.8768846,0.554657644 C18.8748134,0.55932177 18.8728018,0.564012132 18.8708503,0.568727584 L17.0957824,4.85782532 C14.2663625,6.17282164 11.9671652,6.8303198 10.1981903,6.8303198 C8.63226791,6.8303198 6.41630162,6.14395988 3.55029139,4.77124005 L3.55030103,4.77121992 C2.95257196,4.48492835 2.23593164,4.73739834 1.94964007,5.33512741 C1.93692049,5.36168379 1.92518264,5.38869933 1.91445038,5.41611917 Z" id="shoe"></path>
                            </g>
                            <path d="M237.687111,204.807368 L260.083793,198.058641 C250.271196,168.838567 238.244466,136.682947 224.003601,101.591782 C209.762737,66.5006158 194.468578,32.6366886 178.121125,0 L114.864757,0 C133.03961,41.2839125 152.307391,78.7956463 172.6681,112.535202 C193.028809,146.274757 214.701813,177.032146 237.687111,204.807368 Z" id="Pant" fill="#017092"></path>
                            <path d="M122.097256,0 C115.309423,42.0871718 102.217552,95.8584058 100.982032,97.5178021 C100.158353,98.6240663 70.5056699,108.52165 12.0239843,127.210554 L14.5326687,137.411735 C84.2719416,127.388755 121.018591,119.612515 124.772617,114.083014 C130.403655,105.788764 158.520191,40.2640014 169.41025,0 L122.097256,0 Z" id="Leg" fill="#B28B67"></path>
                            <path d="M32.5812848,118.392414 L37.0000592,134.822153 C89.160972,139.379165 121.121115,136.086437 132.880489,124.943971 C144.639863,113.801505 158.042078,72.1535143 173.087135,0 L112.76841,0 C103.236217,59.0840195 97.9071004,89.8661701 96.7810609,92.3464518 C95.6550213,94.8267335 74.2550959,103.508721 32.5812848,118.392414 Z" id="Pant" fill="#78CCE6"></path>
                            <g id="Left-Shoe" transform="translate(15.284068, 149.801755) rotate(80.000000) translate(-15.284068, -149.801755) translate(-12.945619, 139.357296)" fill="#E4E4E4">
                                <path d="M1.91445038,5.41611917 C0.638150125,8.67693595 1.10298133e-13,11.0833055 1.10034648e-13,12.6352278 C1.10034648e-13,14.373783 0.290763398,16.9107674 0.872290195,20.246181 C2.89702523,20.246181 21.0936599,20.246181 55.4621942,20.246181 C56.8807923,15.5746227 56.0618952,13.0525988 53.0055029,12.6801091 C49.9491107,12.3076194 47.4101137,11.971291 45.388512,11.6711239 L19.6687588,0.249804812 C19.365906,0.115317574 19.0113718,0.251804836 18.8768846,0.554657644 C18.8748134,0.55932177 18.8728018,0.564012132 18.8708503,0.568727584 L17.0957824,4.85782532 C14.2663625,6.17282164 11.9671652,6.8303198 10.1981903,6.8303198 C8.63226791,6.8303198 6.41630162,6.14395988 3.55029139,4.77124005 L3.55030103,4.77121992 C2.95257196,4.48492835 2.23593164,4.73739834 1.94964007,5.33512741 C1.93692049,5.36168379 1.92518264,5.38869933 1.91445038,5.41611917 Z" id="shoe"></path>
                            </g>
                        </g>
                        <g id="Body/Long-Sleeve-1" transform="translate(176.050652, 152.072291) rotate(-8.000000) translate(-176.050652, -152.072291) translate(88.550652, 82.072291)">
                            <path d="M79.5417924,41.167459 L113.136522,22.8394486 C118.72312,16.2311919 124.227475,11.0989547 129.649587,7.44273705 C131.30641,6.75373564 134.203774,6.33670277 131.494188,11.1272114 C128.784603,15.9177201 126.150815,21.0780015 127.531242,22.5538536 C128.911669,24.0297056 132.353888,21.9680053 134.000717,24.4201461 C135.098603,26.0549065 129.217844,28.6373678 116.358441,32.16753 L91.947775,54.4310306 L79.5417924,41.167459 Z M132.157375,56.631306 L146.914103,48.5563257 C148.984681,40.7082352 151.459805,36.7595954 154.339474,36.7104065 C156.551659,35.6851096 152.699154,45.601905 156.892757,44.7419222 C161.08636,43.8819395 171.321746,36.2991742 173.085354,37.8387621 C175.694498,40.1164831 173.368025,47.1104066 170.626887,50.589509 C165.503702,57.0919471 161.261927,59.3155847 150.77772,62.2274515 C145.296035,63.7499259 139.369364,66.8015945 132.997707,71.3824576 L132.157375,56.631306 Z" id="Skin" fill="#997659"></path>
                            <path d="M64.26615,33.4884958 C75.9076855,35.2069656 91.7931528,35.2165298 109.985896,27.3797331 L114.195297,42.8346211 C101.002753,52.3039983 83.4966389,59.0283276 69.53478,56.4148384 C58.5320656,54.3552649 54.9927574,40.1447752 64.26615,33.4884958 Z" id="Sleeve" fill="#2026A2" transform="translate(86.570046, 42.181365) rotate(-9.000000) translate(-86.570046, -42.181365) "></path>
                            <path d="M79.0251677,60.508348 C91.5173272,63.6116735 112.465906,59.9519952 141.870904,49.5293132 C149.164559,64.5597868 152.536232,75.2753618 151.985925,81.6760381 C126.760769,94.8013438 105.140632,100.653247 87.3285281,101.039562 C87.8945726,111.567419 86.6081304,121.584918 82.2865827,130.738235 C73.4022138,149.555902 21.3792978,132.128644 3.88759927,135.558754 C-7.06621668,100.123458 14.1133179,85.7226973 14.1303593,63.0491295 C14.1490214,38.2191566 34.1642997,9.9475983e-14 37.1091469,9.9475983e-14 L63.9645318,3.47516088e-13 C65.4463007,18.9629773 72.9044551,39.8618214 79.0251677,60.508348 Z" id="Clothes" fill="#051F31"></path>
                        </g>
                    </g>
                    <g id="Humaaan">
                        <g id="Head/Front" transform="translate(94.657394, 64.201849) rotate(7.000000) translate(-94.657394, -64.201849) translate(13.657394, 10.201849)">
                            <g id="Head" transform="translate(119.265250, 36.887220)" fill="#B28B67">
                                <path d="M7.99684833,33.2520642 C3.53696789,28.0374667 0.518427526,21.6469054 1.02282739,14.486098 C2.47614386,-6.14618192 31.3093341,-1.60734321 36.9179865,8.80605996 C42.526639,19.2194631 41.8601853,45.6339238 34.6115017,47.4950895 C31.7207367,48.2373197 25.5625478,46.4191528 19.2949482,42.6561061 L23.229,70.3795816 L0,70.3795816 L7.99684833,33.2520642 Z"></path>
                            </g>
                            <path d="M142.943296,33.6914628 C139.881781,33.1913639 131.638517,32.847532 130.118312,32.847754 C129.146829,32.847754 128.094037,33.0688363 127.518656,32.1802895 C127.047466,31.4526711 127.22008,30.2220681 127.079456,29.3776934 C126.916173,28.3968069 126.684243,27.4285728 126.449648,26.4627803 C125.782072,23.7145669 124.772601,21.0999795 123.360141,18.6452107 C120.709835,14.0397724 116.827236,10.4323122 111.925613,8.33313973 C106.512812,6.01532659 100.387782,5.48459576 94.5655499,5.95472871 C88.3349971,6.45771325 82.6949317,8.50649848 76.8122732,10.4345319 C71.2064196,12.2717795 65.3348689,12.9949585 59.4717601,12.0977548 C53.5644425,11.1938921 49.1009087,8.00462379 44.1181993,4.97761576 C39.0173035,1.87868937 33.1879622,-0.148120808 27.1577929,0.317794706 C21.5288352,0.752856358 16.3408548,3.06800586 11.6862679,6.16071709 C7.33136787,9.05432101 3.73801438,12.5357021 1.70929697,17.435473 C-0.473151539,22.7061561 -0.471152146,28.4915882 3.11775825,33.1496335 C8.31973447,39.901524 17.9770247,41.6475418 26.0114743,41.4739611 C30.65873,41.3738525 35.2228999,40.5288118 39.6104567,38.991668 C45.4617913,36.9415509 50.5182562,33.4668289 55.992372,30.647585 C58.5613698,29.3246425 61.2167858,28.2380982 64.000163,27.4554312 C66.7011208,26.6956271 69.3614242,26.3471338 71.806904,27.9723998 C74.3938963,29.6917812 76.7120814,31.3807527 79.6716273,32.4570864 C82.5107654,33.4896919 85.5180746,34.0672584 88.542934,34.0439515 C94.4282583,33.9986696 100.22983,32.1720766 105.945873,30.9485767 C110.607124,29.9510425 115.594499,28.9568378 120.346612,29.9157492 C122.329565,30.3159615 125.226019,31.1421347 125.942246,33.1949154 C113.887906,35.3711116 109.153576,50.22092 112.551878,61.1221 C114.385988,67.0058649 125.411074,73.8839238 129.697773,70.7907398 C132.413519,68.8311187 130.764782,66.2584911 129.697773,64.5601969 C127.654393,61.3078891 126.955272,57.1301874 130.736346,54.865869 C133.9978,52.9129749 137.426995,57.5505801 137.491864,57.5454748 C138.388259,57.4751103 146.133886,53.1116854 151.470483,46.7443418 C156.735055,47.0552041 157.533766,43.5974061 156.27669,40.7695771 C155.019613,37.9417481 147.173345,34.3829001 142.943296,33.6914628 Z" id="hair" fill="#191847"></path>
                        </g>
                        <g id="Bottom/Skinny-Jeans-1" transform="translate(10.000000, 175.893129)">
                            <path d="M176.515493,17.5047916 C158.081088,32.5431781 165.34679,164.70477 164.11755,166.36626 C163.571222,167.1047 134.324892,173.343025 76.3785627,185.081237 L78.8994363,195.313785 C146.701105,192.068418 182.573344,187.929444 186.516152,182.896863 C192.161125,175.691647 199.080387,135.350122 207.273938,61.8722883 L176.515493,17.5047916 Z" id="Leg" fill="#B28B67" transform="translate(141.826250, 106.409288) rotate(-55.000000) translate(-141.826250, -106.409288) "></path>
                            <path d="M86.1775143,174.329838 L90.614931,190.81079 C141.17113,196.715218 174.479334,189.582716 186.187485,178.432531 C193.99292,170.999075 200.930392,130.767258 206.999901,57.7370815 L174.096649,10.7463688 C130.209843,43.8656932 156.604908,152.596465 155.48637,155.081196 C154.367833,157.565926 127.715017,159.483371 86.1775143,174.329838 Z" id="Pant" fill="#2F3676" transform="translate(146.588707, 101.841079) rotate(-55.000000) translate(-146.588707, -101.841079) "></path>
                            <g id="Right-Show" transform="translate(188.649383, 216.355228) rotate(20.000000) translate(-188.649383, -216.355228) translate(160.419696, 205.910770)" fill="#E4E4E4">
                                <path d="M1.91445038,5.41611917 C0.638150125,8.67693595 2.63484445e-16,11.0833055 0,12.6352278 C0,14.373783 0.290763398,16.9107674 0.872290195,20.246181 C2.89702523,20.246181 21.0936599,20.246181 55.4621942,20.246181 C56.8807923,15.5746227 56.0618952,13.0525988 53.0055029,12.6801091 C49.9491107,12.3076194 47.4101137,11.971291 45.388512,11.6711239 L19.6687588,0.249804812 C19.365906,0.115317574 19.0113718,0.251804836 18.8768846,0.554657644 C18.8748134,0.55932177 18.8728018,0.564012132 18.8708503,0.568727584 L17.0957824,4.85782532 C14.2663625,6.17282164 11.9671652,6.8303198 10.1981903,6.8303198 C8.63226791,6.8303198 6.41630162,6.14395988 3.55029139,4.77124005 L3.55030103,4.77121992 C2.95257196,4.48492835 2.23593164,4.73739834 1.94964007,5.33512741 C1.93692049,5.36168379 1.92518264,5.38869933 1.91445038,5.41611917 Z" id="shoe"></path>
                            </g>
                            <polygon id="Leg" fill="#997659" points="101.82375 27 51.7401267 146.767642 2.51572022 248.021089 14.1293509 248.021089 141.190796 27"></polygon>
                            <g id="Left-Shot" transform="translate(0.196875, 237.174641)" fill="#E4E4E4">
                                <path d="M1.91445038,5.41611917 C0.638150125,8.67693595 2.63484445e-16,11.0833055 0,12.6352278 C0,14.373783 0.290763398,16.9107674 0.872290195,20.246181 C2.89702523,20.246181 21.0936599,20.246181 55.4621942,20.246181 C56.8807923,15.5746227 56.0618952,13.0525988 53.0055029,12.6801091 C49.9491107,12.3076194 47.4101137,11.971291 45.388512,11.6711239 L19.6687588,0.249804812 C19.365906,0.115317574 19.0113718,0.251804836 18.8768846,0.554657644 C18.8748134,0.55932177 18.8728018,0.564012132 18.8708503,0.568727584 L17.0957824,4.85782532 C14.2663625,6.17282164 11.9671652,6.8303198 10.1981903,6.8303198 C8.63226791,6.8303198 6.41630162,6.14395988 3.55029139,4.77124005 L3.55030103,4.77121992 C2.95257196,4.48492835 2.23593164,4.73739834 1.94964007,5.33512741 C1.93692049,5.36168379 1.92518264,5.38869933 1.91445038,5.41611917 Z" id="shoe"></path>
                            </g>
                            <path d="M6.96091668,226.986848 L32.7665326,231.807368 C52.7193625,202.587294 136.22277,82.7751811 145.378125,27 L87.9290072,27 C57.3546175,67.3198086 25.9800843,197.283419 6.96091668,226.986848 Z" id="Pant" fill="#5C63AB"></path>
                        </g>
                        <g id="Body/Long-Sleeve-1" transform="translate(132.903026, 182.804964) rotate(7.000000) translate(-132.903026, -182.804964) translate(9.403026, 101.804964)">
                            <path d="M190.63925,74.8309335 L225.709781,59.4892321 C231.853321,53.3911288 237.785784,48.7562882 243.50717,45.5847105 C245.217974,45.04217 248.140801,44.878262 245.022373,49.4153055 C241.903944,53.952349 238.828671,58.8643387 240.074714,60.4544181 C241.320756,62.0444974 244.930268,60.2894828 246.356276,62.8752637 C247.306948,64.5991176 241.22261,66.661207 228.103263,69.0615318 L201.837506,89.1210729 L190.63925,74.8309335 Z M48.8535793,79.0565163 L68.687,82.9764127 C48.7411117,120.003028 38.0444901,139.627155 36.5971352,141.848795 C33.3405867,146.847485 36.3790124,156.008624 37.5013941,160.832942 C30.4602004,162.465595 33.2370309,151.909029 24.3265363,154.113144 C16.1934501,156.124958 9.29757363,161.287989 1.71380381,154.324818 C0.781423872,153.468737 0.0988776738,150.79287 3.27783318,149.42043 C11.1977707,146.001183 22.8988112,139.598713 24.7961359,137.113015 C27.3834771,133.723323 35.4026249,114.371157 48.8535793,79.0565163 Z" id="Skin" fill="#B28B67"></path>
                            <path d="M118.336464,9.53944253 L126.549324,7.38552016 C146.244354,23.3439883 157.343292,64.8524935 169.933729,69.373847 C181.837478,73.6486037 197.61095,67.1241903 216.288042,58.5438641 L223.342149,71.168055 C207.47587,91.5789778 171.551396,110.793293 155.627479,103.011638 C130.168445,90.5703882 120.036193,39.0646775 118.336464,9.53944253 Z" id="Coat-Back" fill="#017092" transform="translate(170.839307, 56.083001) rotate(5.000000) translate(-170.839307, -56.083001) "></path>
                            <path d="M86.10875,109.90784 C119.666676,109.90784 144.351182,109.90784 160.16227,109.90784 C163.546139,109.90784 162.908513,105.040694 162.419354,102.584705 C156.773873,74.2396281 134.736052,43.6850068 134.736052,3.33650343 L113.375531,-4.54747351e-13 C95.7076358,28.3045533 89.5977713,63.1531892 86.10875,109.90784 Z" id="Shirt" fill="#DDE3E9"></path>
                            <path d="M78.7226583,81.2095237 C63.6263505,108.33426 50.9370868,127.862772 40.6548673,139.795059 L25.132625,136.766636 C35.1313474,74.9982871 64.0863132,29.4094086 111.997522,-4.21512051e-13 L112.241375,-4.29905903e-13 L120.455147,-4.54747351e-13 C139.631195,65.1126318 144.917692,108.497305 136.314638,130.154021 L69.654875,130.154021 C70.7094988,114.30748 74.0910297,97.5491843 78.7226598,81.2095204 Z" id="Coat-Front" fill="#78CCE6"></path>
                        </g>
                    </g>
                </g>
                <g id="Image" transform="translate(249.590327, 98.810589) rotate(-14.000000) translate(-249.590327, -98.810589) translate(219.090327, 77.810589)">
                    <path d="M30.496823,32.7640365 C30.495623,32.7670365 30.494423,32.7700365 30.492623,32.7736365 C30.494423,32.7706365 30.496823,32.7586365 30.496823,32.7640365" id="Fill-35" fill="#C5CFD6"></path>
                    <path d="M30.4940289,32.7685957 C30.4940289,32.7691957 30.4934289,32.7703957 30.4934289,32.7715957 C30.4934289,32.7685957 30.4988289,32.7595957 30.4940289,32.7685957" id="Fill-37" fill="#C5CFD6"></path>
                    <path d="M30.5148659,32.7178377 C30.5106659,32.7298377 30.5052659,32.7412377 30.5004659,32.7532377 C30.5028659,32.7472377 30.5052659,32.7424377 30.5076659,32.7364377 C30.4452659,32.8924377 30.4848659,32.7910377 30.5148659,32.7178377" id="Fill-39" fill="#C5CFD6"></path>
                    <path d="M30.5014355,32.7539721 C30.4990355,32.7593721 30.4966355,32.7653721 30.4942355,32.7707721 C30.4768355,32.8043721 30.5014355,32.7539721 30.5014355,32.7539721" id="Fill-41" fill="#C5CFD6"></path>
                    <polygon id="Fill-43" fill="#C5CFD6" points="30.494723 32.7684471 30.494723 32.7684471 30.494723 32.7678471"></polygon>
                    <path d="M30.494423,32.7687471 C30.494423,32.7681471 30.494423,32.7681471 30.495023,32.7675471 C30.494423,32.7681471 30.494423,32.7681471 30.494423,32.7687471" id="Fill-45" fill="#C5CFD6"></path>
                    <path d="M30.4915765,32.7730524 C30.4879765,32.7802524 30.5083765,32.7454524 30.4915765,32.7730524" id="Fill-47" fill="#C5CFD6"></path>
                    <path d="M30.494123,32.7687471 L30.495323,32.7675471 C30.494723,32.7681471 30.494723,32.7687471 30.494123,32.7687471" id="Fill-49" fill="#C5CFD6"></path>
                    <rect id="Photo-Background" fill="#0A3C64" x="0.344721374" y="0.491068173" width="60" height="39.6" rx="2.4"></rect>
                    <g id="icons8-night_landscape" transform="translate(5.434577, 12.055543)" fill="#000000" fill-opacity="0.2">
                        <polygon id="Mountains" points="17.5869048 0 0.282731208 28.2 34.8910783 28.2"></polygon>
                        <polygon id="Mountains" points="35.428475 7.55357143 20.1305824 28.2 50.7263676 28.2"></polygon>
                    </g>
                    <circle id="Sun" fill="#FFFFFF" cx="47.4099458" cy="14.1854876" r="5.7"></circle>
                </g>
            </g>
        </g>
    </g>
</svg>
